<svg id="visual" viewBox="0 0 900 600" width="900" height="600" xmlns="http://www.w3.org/2000/svg"
    xmlns:xlink="http://www.w3.org/1999/xlink" version="1.1">
    <rect x="0" y="0" width="900" height="600" fill="rgba(255,255,255,0)"></rect>
    <g transform="translate(442.0045820310168 309.1642491488767)">
        <path
            d="M92.9 -161.4C122.5 -143.9 150 -123.2 171.7 -95.8C193.4 -68.3 209.2 -34.2 206.6 -1.5C204 31.2 183 62.3 159.5 86.7C136.1 111.1 110.2 128.6 83.2 142.4C56.3 156.1 28.1 166.1 -3.5 172.1C-35.2 178.2 -70.3 180.5 -99.9 168.2C-129.5 156 -153.5 129.2 -169.3 98.8C-185 68.3 -192.5 34.2 -190.6 1.1C-188.8 -32 -177.5 -64 -161 -93.2C-144.5 -122.3 -122.8 -148.6 -95 -167.3C-67.3 -186 -33.7 -197 -1 -195.2C31.7 -193.5 63.3 -179 92.9 -161.4"
            fill="#FF6F61"></path>
    </g>
</svg>